<svg height="448pt" viewBox="0 0 448 448" width="448pt" xmlns="http://www.w3.org/2000/svg"><path d="m0 248h176c22.089844 0 40 17.910156 40 40s-17.910156 40-40 40h-176v8h184c22.082031-.027344 39.972656-17.917969 40-40v-16c-.027344-22.082031-17.917969-39.972656-40-40h-184zm0 0"/><path d="m448 440h-176c-22.089844 0-40-17.910156-40-40s17.910156-40 40-40h176v-8h-184c-22.082031.027344-39.972656 17.917969-40 40v16c.027344 22.082031 17.917969 39.972656 40 40h184zm0 0"/><path d="m272 376c-13.253906 0-24 10.746094-24 24s10.746094 24 24 24h160v-48zm0 0"/><path d="m40 448h184.886719c-10.800781-10.503906-16.890625-24.933594-16.886719-40v-16c-.003906-15.066406 6.085938-29.496094 16.886719-40h-184.886719c-22.082031.027344-39.9726562 17.917969-40 40v16c.0273438 22.082031 17.917969 39.972656 40 40zm0 0"/><path d="m448 280c-.027344-22.082031-17.917969-39.972656-40-40h-184.886719c10.800781 10.503906 16.890625 24.933594 16.886719 40v16c.003906 15.066406-6.085938 29.496094-16.886719 40h184.886719c22.082031-.027344 39.972656-17.917969 40-40zm0 0"/><path d="m176 312c13.253906 0 24-10.746094 24-24s-10.746094-24-24-24h-160v48zm0 0"/><path d="m344 32v8c26.507812 0 48 21.492188 48 48s-21.492188 48-48 48h-3.960938c-.597656 2.472656-1.144531 4.984375-1.871093 7.375-.054688.199219-.089844.425781-.152344.625h5.984375c30.929688 0 56-25.070312 56-56s-25.070312-56-56-56zm0 0"/><path d="m325.886719 126.542969c1.394531-7.433594 2.101562-14.980469 2.113281-22.542969v-72h-96v12c0 15.464844-12.535156 28-28 28s-28-12.535156-28-28v-12h-16v56c0 13.253906-10.746094 24-24 24s-24-10.746094-24-24v-56h-24v72c.046875 57.394531 40.730469 106.722656 97.070312 117.691406 56.339844 10.96875 112.554688-19.496094 134.128907-72.683594 3-7.238281 5.238281-14.765624 6.6875-22.464843zm-21.367188 16.144531c-15.75 39.492188-54 65.378906-96.519531 65.3125-4.417969 0-8-3.582031-8-8s3.582031-8 8-8c35.984375.046875 68.359375-21.867188 81.679688-55.296875 1.652343-4.097656 6.3125-6.078125 10.414062-4.425781 4.097656 1.652344 6.078125 6.3125 4.425781 10.410156zm0 0"/><path d="m376 88c0-17.671875-14.328125-32-32-32v48c0 3.742188-.214844 7.527344-.535156 11.320312-.066406.800782-.128906 1.664063-.21875 2.496094-.085938.832032-.101563 1.457032-.191406 2.183594h.945312c17.671875 0 32-14.328125 32-32zm0 0"/><path d="m88 16h32c4.417969 0 8 3.582031 8 8v64c0 4.417969 3.582031 8 8 8s8-3.582031 8-8v-64c0-4.417969 3.582031-8 8-8h32c4.417969 0 8 3.582031 8 8v20c0 6.628906 5.371094 12 12 12s12-5.371094 12-12v-20c0-4.417969 3.582031-8 8-8h104v-16h-240zm0 0"/></svg>