<?xml version="1.0" encoding="iso-8859-1"?>
<!-- Generator: Adobe Illustrator 19.0.0, SVG Export Plug-In . SVG Version: 6.00 Build 0)  -->
<svg version="1.1" id="Capa_1" xmlns="http://www.w3.org/2000/svg" xmlns:xlink="http://www.w3.org/1999/xlink" x="0px" y="0px"
	 viewBox="0 0 483.806 483.806" style="enable-background:new 0 0 483.806 483.806;" xml:space="preserve">
<g>
	<g>
		<path d="M446.385,69.115c-49.87-49.98-130.813-50.069-180.793-0.199c-0.066,0.066-0.133,0.133-0.199,0.199l-22.664,22.664
			l-22.656-22.656c-49.109-50.85-130.141-52.263-180.992-3.154s-52.263,130.141-3.154,180.992c1.03,1.067,2.079,2.116,3.146,3.146
			l203.656,203.656l203.656-203.656C496.279,200.092,496.279,119.13,446.385,69.115z M435.073,238.795L242.729,431.139
			L50.385,238.795c-43.719-43.79-43.661-114.73,0.128-158.448c20.985-20.951,49.419-32.728,79.072-32.752
			c29.716-0.084,58.225,11.751,79.144,32.856l34,33.952l33.992-33.984c43.625-43.728,114.438-43.811,158.166-0.186
			c0.062,0.062,0.124,0.124,0.186,0.186C478.735,124.184,478.735,195.031,435.073,238.795z"/>
	</g>
</g>
<g>
</g>
<g>
</g>
<g>
</g>
<g>
</g>
<g>
</g>
<g>
</g>
<g>
</g>
<g>
</g>
<g>
</g>
<g>
</g>
<g>
</g>
<g>
</g>
<g>
</g>
<g>
</g>
<g>
</g>
</svg>
