<svg id="Capa_1" enable-background="new 0 0 510 510" height="512" viewBox="0 0 510 510" width="512" xmlns="http://www.w3.org/2000/svg"><g><path d="m90 0v510h165l10-266.5-10-243.5z" fill="#575f64"/><path d="m255 0h165v510h-165z" fill="#474f55"/><path d="m195 450h-30v-30l15-10 15 10z" fill="#474f55"/><path d="m345 450h-30v-30l15-10 15 10z" fill="#32393f"/><path d="m240 420v30h15l10-10-10-20-7.5-10z" fill="#474f55"/><path d="m270 420-7.5-10-7.5 10v30h15z" fill="#32393f"/><path d="m120 60v360h135l10-180-10-180z" fill="#27d8f6"/><path d="m255 60h135v360h-135z" fill="#3aaaff"/><path d="m166.788 205.778-16.62 49.222 16.62 49.222 28.424-9.598-13.38-39.624 13.38-39.624z" fill="#fdf3f3"/><path d="m343.212 205.778-28.424 9.598 13.38 39.624-13.38 39.624 28.424 9.598 16.62-49.222z" fill="#ebe4f0"/><path d="m218.606 325.778 28.788 8.444 7.606-25.931 10-55.291-10-51.291z" fill="#fdf3f3"/><path d="m262.606 175.777-7.606 25.932v106.582l36.394-124.068z" fill="#ebe4f0"/></g></svg>