<svg id="Capa_1" enable-background="new 0 0 512 512" height="512" viewBox="0 0 512 512" width="512" xmlns="http://www.w3.org/2000/svg"><g><g><path d="m15 315v-270c0-16.542 13.458-30 30-30h422c16.542 0 30 13.458 30 30v270z" fill="#7ed8f7"/><path d="m467 15h-211v300h241v-270c0-16.542-13.458-30-30-30z" fill="#6aa9ff"/><path d="m125 60c-8.284 0-15 6.716-15 15v13.787l-75.606-75.607-21.213 21.213 75.606 75.607h-13.787c-8.284 0-15 6.716-15 15s6.716 15 15 15h50c8.284 0 15-6.716 15-15v-50c0-8.284-6.716-15-15-15z" fill="#f9f9f9"/><path d="m321 452h-130v-77c0-8.284 6.716-15 15-15h100c8.284 0 15 6.716 15 15z" fill="#453d83"/><path d="m306 360h-50v92h65v-77c0-8.284-6.716-15-15-15z" fill="#2d2755"/><path d="m467 0h-422c-24.853 0-45 20.147-45 45v300c0 24.853 20.147 45 45 45h447l20-183v-162c0-24.853-20.147-45-45-45zm15 300h-452v-255c0-8.271 6.729-15 15-15h422c8.271 0 15 6.729 15 15z" fill="#5f55af"/><path d="m467 0h-211v30h211c8.284 0 15 6.716 15 15v255h-226v90h236l20-183v-162c0-24.853-20.147-45-45-45z" fill="#453d83"/><path d="m380.23 492.257-15-45c-2.041-6.126-7.773-10.257-14.23-10.257h-190c-6.456 0-12.189 4.131-14.23 10.257l-15 45c-3.238 9.713 3.992 19.743 14.23 19.743h220c10.238 0 17.468-10.03 14.23-19.743z" fill="#5f55af"/><path d="m256 512h110c10.238 0 17.468-10.031 14.23-19.743l-15-45c-2.041-6.126-7.773-10.257-14.23-10.257h-95z" fill="#453d83"/></g><g><path d="m467 177h-140c-16.569 0-30 13.431-30 30v260c0 16.569 13.431 30 30 30h140c16.569 0 30-13.431 30-30v-260c0-16.569-13.431-30-30-30z" fill="#7ed8f7"/><path d="m467 177h-70v320h70c16.569 0 30-13.431 30-30v-260c0-16.569-13.431-30-30-30z" fill="#6aa9ff"/><path d="m412 227c-8.284 0-15 6.716-15 15v13.787l-75.606-75.607-21.213 21.213 75.606 75.607h-13.787c-8.284 0-15 6.716-15 15s6.716 15 15 15h50c8.284 0 15-6.716 15-15v-50c0-8.284-6.716-15-15-15z" fill="#5f55af"/><path d="m412 227c-8.284 0-15 6.715-15 14.999v65.001h15c8.284 0 15-6.716 15-15v-50c0-8.284-6.716-15-15-15z" fill="#453d83"/><path d="m467 512h-140c-24.813 0-45-20.187-45-45v-260c0-24.813 20.187-45 45-45h140c24.813 0 45 20.187 45 45v260c0 24.813-20.187 45-45 45zm-140-320c-8.271 0-15 6.729-15 15v260c0 8.271 6.729 15 15 15h140c8.271 0 15-6.729 15-15v-260c0-8.271-6.729-15-15-15z" fill="#f9f9f9"/><path d="m467 162h-70v30h70c8.271 0 15 6.729 15 15v260c0 8.271-6.729 15-15 15h-70v30h70c24.813 0 45-20.187 45-45v-260c0-24.813-20.187-45-45-45z" fill="#e2dff4"/></g></g></svg>